<svg width="18" height="16" viewBox="0 0 18 16" fill="none" xmlns="http://www.w3.org/2000/svg">
<path fill-rule="evenodd" clip-rule="evenodd" d="M9.7749 4.82478C9.71903 4.76904 9.6747 4.70283 9.64445 4.62994C9.6142 4.55704 9.59863 4.4789 9.59863 4.39998C9.59863 4.32106 9.6142 4.24291 9.64445 4.17002C9.6747 4.09712 9.71903 4.03091 9.7749 3.97518L13.3749 0.375177C13.4307 0.319391 13.4969 0.27514 13.5698 0.244949C13.6427 0.214758 13.7208 0.199219 13.7997 0.199219C13.8786 0.199219 13.9567 0.214758 14.0296 0.244949C14.1025 0.27514 14.1687 0.319391 14.2245 0.375177C14.2803 0.430962 14.3245 0.497189 14.3547 0.570077C14.3849 0.642964 14.4005 0.721084 14.4005 0.799977C14.4005 0.878869 14.3849 0.95699 14.3547 1.02988C14.3245 1.10276 14.2803 1.16899 14.2245 1.22478L10.6245 4.82478C10.5688 4.88065 10.5026 4.92498 10.4297 4.95523C10.3568 4.98548 10.2786 5.00105 10.1997 5.00105C10.1208 5.00105 10.0426 4.98548 9.96975 4.95523C9.89685 4.92498 9.83064 4.88065 9.7749 4.82478Z" fill="#697586"/>
<path fill-rule="evenodd" clip-rule="evenodd" d="M17.8248 4.82478C17.769 4.88065 17.7028 4.92498 17.6299 4.95523C17.557 4.98548 17.4789 5.00105 17.4 5.00105C17.3211 5.00105 17.2429 4.98548 17.17 4.95523C17.0971 4.92498 17.0309 4.88065 16.9752 4.82478L13.3752 1.22478C13.2625 1.11211 13.1992 0.959307 13.1992 0.799977C13.1992 0.640646 13.2625 0.48784 13.3752 0.375177C13.4878 0.262513 13.6406 0.199219 13.8 0.199219C13.9593 0.199219 14.1121 0.262513 14.2248 0.375177L17.8248 3.97518C17.8807 4.03091 17.925 4.09712 17.9552 4.17002C17.9855 4.24291 18.001 4.32106 18.001 4.39998C18.001 4.4789 17.9855 4.55704 17.9552 4.62994C17.925 4.70283 17.8807 4.76904 17.8248 4.82478Z" fill="#697586"/>
<path fill-rule="evenodd" clip-rule="evenodd" d="M13.8004 0.799927C13.9595 0.799927 14.1121 0.863141 14.2246 0.975663C14.3372 1.08818 14.4004 1.2408 14.4004 1.39993V12.7999C14.4004 12.9591 14.3372 13.1117 14.2246 13.2242C14.1121 13.3367 13.9595 13.3999 13.8004 13.3999C13.6412 13.3999 13.4886 13.3367 13.3761 13.2242C13.2636 13.1117 13.2004 12.9591 13.2004 12.7999V1.39993C13.2004 1.2408 13.2636 1.08818 13.3761 0.975663C13.4886 0.863141 13.6412 0.799927 13.8004 0.799927ZM8.22517 11.1751C8.28104 11.2309 8.32537 11.2971 8.35562 11.37C8.38587 11.4429 8.40144 11.521 8.40144 11.5999C8.40144 11.6788 8.38587 11.757 8.35562 11.8299C8.32537 11.9028 8.28104 11.969 8.22517 12.0247L4.62517 15.6247C4.5125 15.7374 4.3597 15.8007 4.20037 15.8007C4.04104 15.8007 3.88823 15.7374 3.77557 15.6247C3.6629 15.5121 3.59961 15.3593 3.59961 15.1999C3.59961 15.0406 3.6629 14.8878 3.77557 14.7751L7.37557 11.1751C7.4313 11.1193 7.49751 11.0749 7.57041 11.0447C7.6433 11.0144 7.72145 10.9989 7.80037 10.9989C7.87929 10.9989 7.95743 11.0144 8.03033 11.0447C8.10322 11.0749 8.16943 11.1193 8.22517 11.1751Z" fill="#697586"/>
<path fill-rule="evenodd" clip-rule="evenodd" d="M0.175296 11.1752C0.231031 11.1193 0.297241 11.075 0.370136 11.0447C0.44303 11.0145 0.521175 10.9989 0.600096 10.9989C0.679017 10.9989 0.757162 11.0145 0.830056 11.0447C0.902951 11.075 0.969161 11.1193 1.0249 11.1752L4.6249 14.7752C4.68068 14.831 4.72493 14.8972 4.75512 14.9701C4.78532 15.043 4.80085 15.1211 4.80085 15.2C4.80085 15.2789 4.78532 15.357 4.75512 15.4299C4.72493 15.5028 4.68068 15.569 4.6249 15.6248C4.56911 15.6806 4.50288 15.7248 4.43 15.755C4.35711 15.7852 4.27899 15.8007 4.2001 15.8007C4.1212 15.8007 4.04308 15.7852 3.9702 15.755C3.89731 15.7248 3.83108 15.6806 3.7753 15.6248L0.175296 12.0248C0.11942 11.969 0.0750887 11.9028 0.044841 11.8299C0.0145933 11.757 -0.000976562 11.6789 -0.000976562 11.6C-0.000976562 11.5211 0.0145933 11.4429 0.044841 11.37C0.0750887 11.2971 0.11942 11.2309 0.175296 11.1752Z" fill="#697586"/>
<path fill-rule="evenodd" clip-rule="evenodd" d="M4.19961 15.2C4.04048 15.2 3.88787 15.1368 3.77535 15.0242C3.66282 14.9117 3.59961 14.7591 3.59961 14.6V3.19998C3.59961 3.04085 3.66282 2.88823 3.77535 2.77571C3.88787 2.66319 4.04048 2.59998 4.19961 2.59998C4.35874 2.59998 4.51135 2.66319 4.62387 2.77571C4.7364 2.88823 4.79961 3.04085 4.79961 3.19998V14.6C4.79961 14.7591 4.7364 14.9117 4.62387 15.0242C4.51135 15.1368 4.35874 15.2 4.19961 15.2Z" fill="#697586"/>
</svg>
