<svg width="21" height="21" viewBox="0 0 21 21" fill="none" xmlns="http://www.w3.org/2000/svg">
<path d="M18.8999 11.16C18.7396 10.9775 18.6512 10.7429 18.6512 10.5C18.6512 10.2571 18.7396 10.0225 18.8999 9.84002L20.1799 8.40002C20.3209 8.24269 20.4085 8.04472 20.4301 7.83452C20.4516 7.62433 20.4061 7.4127 20.2999 7.23002L18.2999 3.77002C18.1948 3.58754 18.0348 3.44289 17.8426 3.3567C17.6505 3.27051 17.4361 3.24718 17.2299 3.29002L15.3499 3.67002C15.1107 3.71945 14.8616 3.67961 14.6498 3.55802C14.4379 3.43643 14.2779 3.2415 14.1999 3.01002L13.5899 1.18002C13.5228 0.981396 13.395 0.808882 13.2245 0.686859C13.0541 0.564836 12.8495 0.499476 12.6399 0.500017H8.6399C8.42183 0.488635 8.20603 0.548944 8.02546 0.671731C7.84489 0.794519 7.70948 0.973036 7.6399 1.18002L7.0799 3.01002C7.0019 3.2415 6.84187 3.43643 6.63001 3.55802C6.41815 3.67961 6.16911 3.71945 5.9299 3.67002L3.9999 3.29002C3.80445 3.2624 3.6052 3.29324 3.42724 3.37866C3.24929 3.46407 3.1006 3.60025 2.9999 3.77002L0.999896 7.23002C0.891056 7.41067 0.842118 7.6211 0.860079 7.83124C0.878039 8.04138 0.961979 8.24046 1.0999 8.40002L2.3699 9.84002C2.53022 10.0225 2.61863 10.2571 2.61863 10.5C2.61863 10.7429 2.53022 10.9775 2.3699 11.16L1.0999 12.6C0.961979 12.7596 0.878039 12.9587 0.860079 13.1688C0.842118 13.3789 0.891056 13.5894 0.999896 13.77L2.9999 17.23C3.10499 17.4125 3.26502 17.5571 3.45715 17.6433C3.64928 17.7295 3.86372 17.7529 4.0699 17.71L5.9499 17.33C6.18911 17.2806 6.43815 17.3204 6.65001 17.442C6.86187 17.5636 7.0219 17.7585 7.0999 17.99L7.7099 19.82C7.77948 20.027 7.91489 20.2055 8.09546 20.3283C8.27603 20.4511 8.49183 20.5114 8.7099 20.5H12.7099C12.9195 20.5006 13.1241 20.4352 13.2945 20.3132C13.465 20.1912 13.5928 20.0186 13.6599 19.82L14.2699 17.99C14.3479 17.7585 14.5079 17.5636 14.7198 17.442C14.9316 17.3204 15.1807 17.2806 15.4199 17.33L17.2999 17.71C17.5061 17.7529 17.7205 17.7295 17.9126 17.6433C18.1048 17.5571 18.2648 17.4125 18.3699 17.23L20.3699 13.77C20.4761 13.5873 20.5216 13.3757 20.5001 13.1655C20.4785 12.9553 20.3909 12.7573 20.2499 12.6L18.8999 11.16ZM17.4099 12.5L18.2099 13.4L16.9299 15.62L15.7499 15.38C15.0297 15.2328 14.2805 15.3551 13.6445 15.7238C13.0085 16.0925 12.53 16.6819 12.2999 17.38L11.9199 18.5H9.3599L8.9999 17.36C8.76975 16.6619 8.29128 16.0725 7.6553 15.7038C7.01932 15.3351 6.27012 15.2128 5.5499 15.36L4.3699 15.6L3.0699 13.39L3.8699 12.49C4.36185 11.94 4.63383 11.2279 4.63383 10.49C4.63383 9.75208 4.36185 9.04004 3.8699 8.49002L3.0699 7.59002L4.3499 5.39002L5.5299 5.63002C6.25012 5.77724 6.99932 5.6549 7.6353 5.28622C8.27128 4.91753 8.74975 4.32818 8.9799 3.63002L9.3599 2.50002H11.9199L12.2999 3.64002C12.53 4.33818 13.0085 4.92753 13.6445 5.29622C14.2805 5.6649 15.0297 5.78724 15.7499 5.64002L16.9299 5.40002L18.2099 7.62002L17.4099 8.52002C16.9235 9.06878 16.6549 9.7767 16.6549 10.51C16.6549 11.2433 16.9235 11.9513 17.4099 12.5ZM10.6399 6.50002C9.84877 6.50002 9.07541 6.73461 8.41761 7.17414C7.75982 7.61366 7.24713 8.23838 6.94438 8.96928C6.64163 9.70019 6.56241 10.5045 6.71675 11.2804C6.8711 12.0563 7.25206 12.769 7.81147 13.3284C8.37088 13.8879 9.08361 14.2688 9.85954 14.4232C10.6355 14.5775 11.4397 14.4983 12.1706 14.1955C12.9015 13.8928 13.5262 13.3801 13.9658 12.7223C14.4053 12.0645 14.6399 11.2911 14.6399 10.5C14.6399 9.43915 14.2185 8.42174 13.4683 7.67159C12.7182 6.92144 11.7008 6.50002 10.6399 6.50002ZM10.6399 12.5C10.2443 12.5 9.85765 12.3827 9.52876 12.163C9.19986 11.9432 8.94351 11.6308 8.79214 11.2654C8.64076 10.8999 8.60116 10.4978 8.67833 10.1098C8.7555 9.72187 8.94598 9.36551 9.22568 9.0858C9.50539 8.8061 9.86175 8.61562 10.2497 8.53845C10.6377 8.46128 11.0398 8.50088 11.4053 8.65226C11.7707 8.80363 12.0831 9.05998 12.3028 9.38888C12.5226 9.71778 12.6399 10.1045 12.6399 10.5C12.6399 11.0304 12.4292 11.5392 12.0541 11.9142C11.679 12.2893 11.1703 12.5 10.6399 12.5Z" fill="#697586"/>
</svg>
