<svg width="18" height="20" viewBox="0 0 18 20" fill="none" xmlns="http://www.w3.org/2000/svg">
<path d="M18 14.09V9.098C18 4.808 18 2.665 16.682 1.332C15.364 0 13.242 0 9 0C4.757 0 2.636 0 1.318 1.332C-1.19209e-07 2.665 0 4.81 0 9.098V14.091C0 17.187 -5.96046e-08 18.736 0.734 19.412C1.084 19.735 1.526 19.938 1.997 19.992C2.984 20.105 4.137 19.085 6.442 17.046C7.462 16.145 7.971 15.694 8.56 15.576C8.85 15.516 9.15 15.516 9.44 15.576C10.03 15.694 10.539 16.145 11.558 17.046C13.863 19.085 15.016 20.105 16.003 19.991C16.473 19.938 16.916 19.735 17.266 19.412C18 18.736 18 17.187 18 14.09Z" fill="#173302"/>
</svg>
