<svg width="20" height="22" viewBox="0 0 20 22" fill="none" xmlns="http://www.w3.org/2000/svg">
<path d="M17 1.99995H13.702C13.603 1.8527 13.4961 1.71083 13.382 1.57495L13.372 1.56295C12.637 0.707519 11.6034 0.164624 10.482 0.0449462C10.1635 -0.0151448 9.83652 -0.0151448 9.518 0.0449462C8.39656 0.164624 7.36298 0.707519 6.628 1.56295L6.618 1.57495C6.5039 1.71051 6.39708 1.85204 6.298 1.99895V1.99995H3C2.20459 2.00074 1.44199 2.31707 0.879557 2.8795C0.31712 3.44194 0.000794215 4.20454 0 4.99995V18.9999C0.000794215 19.7954 0.31712 20.558 0.879557 21.1204C1.44199 21.6828 2.20459 21.9992 3 21.9999H17C17.7954 21.9992 18.558 21.6828 19.1204 21.1204C19.6829 20.558 19.9992 19.7954 20 18.9999V4.99995C19.9992 4.20454 19.6829 3.44194 19.1204 2.8795C18.558 2.31707 17.7954 2.00074 17 1.99995ZM18 18.9999C18 19.2652 17.8946 19.5195 17.7071 19.7071C17.5196 19.8946 17.2652 19.9999 17 19.9999H3C2.73478 19.9999 2.48043 19.8946 2.29289 19.7071C2.10536 19.5195 2 19.2652 2 18.9999V4.99995C2 4.73473 2.10536 4.48038 2.29289 4.29284C2.48043 4.1053 2.73478 3.99995 3 3.99995H7.55C7.66476 3.4348 7.97136 2.92671 8.41787 2.56176C8.86438 2.19681 9.42332 1.99744 10 1.99744C10.5767 1.99744 11.1356 2.19681 11.5821 2.56176C12.0286 2.92671 12.3352 3.4348 12.45 3.99995H17C17.2652 3.99995 17.5196 4.1053 17.7071 4.29284C17.8946 4.48038 18 4.73473 18 4.99995V18.9999Z" fill="#697586"/>
</svg>
